<?xml version="1.0" encoding="utf-8"?>
<!-- Generator: Adobe Illustrator 16.0.0, SVG Export Plug-In . SVG Version: 6.00 Build 0)  -->
<!DOCTYPE svg PUBLIC "-//W3C//DTD SVG 1.1//EN" "http://www.w3.org/Graphics/SVG/1.1/DTD/svg11.dtd">
<svg version="1.1" id="Layer_1" xmlns="http://www.w3.org/2000/svg" xmlns:xlink="http://www.w3.org/1999/xlink" x="0px" y="0px"
	 width="400px" height="400px" viewBox="0 0 400 400" enable-background="new 0 0 400 400" xml:space="preserve">
<path fill="#494949" d="M287.216,256.201V103.155l-136.067,0.082c-1.885-0.161-15.123-0.901-25.247,8.214
	c-7.481,6.735-11.274,16.983-11.274,30.46v125.256l0.007,0.23c0.02,0.292,2.337,29.156,36.294,29.785
	c10.344,0.191,28.565,0.255,48.264,0.255c39.056,0,83.905-0.251,84.58-0.254l3.444-0.021v-24.965H161.382v-15.998H287.216z
	 M280.289,279.125v11.15c-18.04,0.094-101.703,0.493-129.233-0.018c-26.872-0.497-29.342-21.439-29.502-23.229V141.912
	c0-11.397,3.005-19.898,8.931-25.266c8.309-7.526,19.896-6.522,20.152-6.499l0.174,0.018l129.479-0.078v139.188H154.455v29.851
	H280.289z"/>
<path fill="#494949" d="M181.583,127.39h-27.128v103.9h27.128V127.39z M174.656,224.363h-13.274v-90.046h13.274V224.363z"/>
</svg>
