<?xml version="1.0" encoding="utf-8"?>
<!-- Generator: Adobe Illustrator 16.0.0, SVG Export Plug-In . SVG Version: 6.00 Build 0)  -->
<!DOCTYPE svg PUBLIC "-//W3C//DTD SVG 1.1//EN" "http://www.w3.org/Graphics/SVG/1.1/DTD/svg11.dtd">
<svg version="1.1" id="Layer_1" xmlns="http://www.w3.org/2000/svg" xmlns:xlink="http://www.w3.org/1999/xlink" x="0px" y="0px"
	 width="400px" height="400px" viewBox="0 0 400 400" enable-background="new 0 0 400 400" xml:space="preserve">
<path fill="#494949" d="M254.808,125.609l3.133-0.696V87.204H200.06h-0.119H142.06v37.709l3.133,0.696
	c0.97,0.215,23.745,5.571,22.87,30.958c-0.881,25.536-22.12,31.527-23.009,31.766l-2.994,0.779v38.092h40.5v32l0.016,0.35
	c0.105,1.2,2.708,29.61,14.022,49.154l3.403,5.03l3.402-5.03c11.314-19.544,13.917-47.954,14.022-49.154l0.016-32.35h40.5v-35
	l-0.016-3.072l-2.963-0.795c-0.904-0.243-22.144-6.234-23.024-31.77C231.068,131.344,253.851,125.829,254.808,125.609
	 M223.942,156.842c0.873,25.322,18.765,35.203,25.998,38.17v24.192h-40.5v39.812c-0.196,2.012-2.302,22.063-9.44,38.612
	c-7.14-16.549-9.245-36.601-9.44-38.612v-39.812h-40.5v-24.192c7.234-2.967,25.125-12.848,25.998-38.17
	c0.886-25.694-18.293-35.268-25.998-38.067V95.204h49.881h0.119h49.881v23.571C242.235,121.574,223.057,131.148,223.942,156.842"/>
</svg>
