<?xml version="1.0" encoding="utf-8"?>
<!-- Generator: Adobe Illustrator 16.0.0, SVG Export Plug-In . SVG Version: 6.00 Build 0)  -->
<!DOCTYPE svg PUBLIC "-//W3C//DTD SVG 1.1//EN" "http://www.w3.org/Graphics/SVG/1.1/DTD/svg11.dtd">
<svg version="1.1" id="Layer_1" xmlns="http://www.w3.org/2000/svg" xmlns:xlink="http://www.w3.org/1999/xlink" x="0px" y="0px"
	 width="400px" height="400px" viewBox="0 0 400 400" enable-background="new 0 0 400 400" xml:space="preserve">
<path fill="#494949" d="M112.502,291.113h176.005V109H112.502V291.113z M280.507,283.113H120.502V117h160.005V283.113z"/>
<path fill="#494949" d="M264.639,212.793l-17.928-18.48l-36.766,37.896l-24.003-24.744l-54.498,56.176h133.195V212.793z
	 M256.639,255.641H150.351l35.591-36.688l24.003,24.744l36.766-37.896l9.928,10.234V255.641z"/>
<path fill="#494949" d="M171.18,185.729c13.154,0,23.855-10.701,23.855-23.855c0-13.152-10.701-23.854-23.855-23.854
	s-23.855,10.701-23.855,23.854C147.325,175.027,158.026,185.729,171.18,185.729 M171.18,146.02c8.743,0,15.855,7.111,15.855,15.854
	c0,8.744-7.112,15.855-15.855,15.855s-15.855-7.111-15.855-15.855C155.325,153.131,162.437,146.02,171.18,146.02"/>
</svg>
